<svg
  width="16"
  height="19"
  viewBox="0 0 16 19"
  fill="none"
  xmlns="http://www.w3.org/2000/svg"
>
<path
    d="M1.61538 19.0003C1.15513 19.0003 0.770833 18.8461 0.4625 18.5378C0.154167 18.2295 0 17.8452 0 17.3849V4.61568C0 4.15543 0.154167 3.77114 0.4625 3.46281C0.770833 3.15447 1.15513 3.00031 1.61538 3.00031H3.3846V0.769531H4.46152V3.00031H11.6154V0.769531H12.6154V3.00031H14.3846C14.8449 3.00031 15.2292 3.15447 15.5375 3.46281C15.8458 3.77114 16 4.15543 16 4.61568V17.3849C16 17.8452 15.8458 18.2295 15.5375 18.5378C15.2292 18.8461 14.8449 19.0003 14.3846 19.0003H1.61538ZM1.61538 18.0003H14.3846C14.5385 18.0003 14.6795 17.9362 14.8077 17.808C14.9359 17.6798 15 17.5388 15 17.3849V8.61568H1V17.3849C1 17.5388 1.0641 17.6798 1.1923 17.808C1.32052 17.9362 1.46154 18.0003 1.61538 18.0003ZM1 7.61568H15V4.61568C15 4.46185 14.9359 4.32082 14.8077 4.19261C14.6795 4.06441 14.5385 4.00031 14.3846 4.00031H1.61538C1.46154 4.00031 1.32052 4.06441 1.1923 4.19261C1.0641 4.32082 1 4.46185 1 4.61568V7.61568Z"
    fill="#202428"
  />
</svg>
